<svg width="16106" height="6021" viewBox="0 0 16106 6021" fill="none" xmlns="http://www.w3.org/2000/svg">
<rect x="1744" y="1500" width="3000" height="3000" fill="#33A0D5"/>
<path d="M6186.07 2581.49C6176.6 2497.44 6137.53 2432.34 6068.88 2386.17C6000.22 2339.42 5913.81 2316.04 5809.64 2316.04C5735.07 2316.04 5670.56 2327.88 5616.11 2351.55C5561.66 2374.63 5519.34 2406.59 5489.15 2447.43C5459.56 2487.68 5444.77 2533.55 5444.77 2585.04C5444.77 2628.24 5454.83 2665.53 5474.95 2696.9C5495.67 2728.27 5522.59 2754.6 5555.74 2775.91C5589.47 2796.63 5625.58 2814.09 5664.05 2828.29C5702.52 2841.9 5739.51 2853.15 5775.02 2862.03L5952.58 2908.19C6010.58 2922.39 6070.06 2941.63 6131.02 2965.9C6191.98 2990.16 6248.51 3022.12 6300.59 3061.78C6352.67 3101.43 6394.69 3150.56 6426.65 3209.15C6459.21 3267.74 6475.48 3337.88 6475.48 3419.55C6475.48 3522.54 6448.85 3613.98 6395.58 3693.88C6342.91 3773.78 6266.26 3836.81 6165.65 3882.98C6065.62 3929.14 5942.81 3970.04 5800.77 3970.04C5664.64 3970.04 5548.64 3930.62 5449.2 3887.42C5349.77 3844.21 5271.94 3782.95 5215.72 3703.64C5159.49 3623.74 5128.42 3529.05 5122.5 3419.55H5397.71C5403.04 3485.25 5424.35 3540 5461.63 3583.79C5499.51 3627 5547.75 3659.26 5606.34 3680.56C5665.53 3701.28 5730.34 3711.64 5800.77 3711.64C5878.3 3711.64 5947.25 3699.5 6007.62 3675.24C6068.58 3650.38 6116.52 3616.05 6151.44 3572.25C6186.36 3527.86 6203.82 3476.08 6203.82 3416.89C6203.82 3363.03 6188.43 3318.94 6157.66 3284.61C6127.47 3250.28 6086.34 3221.87 6034.25 3199.38C5982.76 3176.89 5924.46 3157.07 5859.36 3139.9L5644.52 3081.31C5498.92 3041.65 5383.51 2983.36 5298.28 2906.41C5213.65 2829.47 5171.33 2727.67 5171.33 2601.02C5171.33 2496.26 5199.74 2404.82 5256.56 2326.69C5313.37 2248.57 5390.31 2187.9 5487.38 2144.7C5584.44 2100.9 5693.94 2079 5815.86 2079C5938.97 2079 6047.57 2100.6 6141.68 2143.81C6236.37 2187.01 6310.95 2246.5 6365.4 2322.25C6419.85 2397.42 6448.26 2483.83 6450.62 2581.49H6186.07Z" fill="#33A0D5"/>
<path d="M7210.46 2885.04V3970.04H7075H6936.14V2885.04H7210.46Z" fill="#33A0D5"/>
<path d="M10979.5 2320.69V2075.09H12442.9V2320.69H11852.9V3966H11568.6V2320.69H10979.5Z" fill="#33A0D5"/>
<path d="M8910.27 3926.12C8816.68 3952.71 8692.98 3966 8539.18 3966C8386.18 3966 8254.75 3945.17 8144.89 3903.52C8035.84 3861.87 7941.85 3800.28 7862.91 3718.74C7693.64 3546.82 7609 3307.54 7609 3000.9C7609 2800.61 7652.95 2627.8 7740.84 2482.46C7859.65 2284.83 8042.35 2158.99 8288.93 2104.93C8364.62 2088.98 8457.39 2081 8567.25 2081C8677.12 2081 8771.92 2086.76 8851.68 2098.28V2353.51C8781.69 2334.02 8681.59 2324.27 8551.38 2324.27C8421.99 2324.27 8315.79 2340.22 8232.78 2372.12C8149.77 2404.03 8081.01 2449.67 8026.48 2509.05C7917.43 2625.14 7862.91 2789.09 7862.91 3000.9C7862.91 3216.25 7916.62 3388.62 8024.04 3518.01C8141.23 3658.92 8308.46 3729.38 8525.75 3729.38C8576.2 3729.38 8623 3727.16 8666.13 3722.73V3172.5H8910.27V3926.12Z" fill="#33A0D5"/>
<path d="M10593.5 2880.39V2079H10865.5V3966H10593.5V3157.81L8282 3157.81V2880.39L10593.5 2880.39Z" fill="#33A0D5"/>
<path d="M9507 2078H9780V2870H9507V2078Z" fill="#33A0D5"/>
<rect x="9507" y="3172" width="273" height="794" fill="#33A0D5"/>
<rect x="4099" y="2072" width="295" height="1815" fill="white"/>
<path d="M12504.1 3976.8C12473.1 3976.8 12446.4 3965.81 12424 3943.84C12401.7 3921.49 12390.5 3894.6 12390.5 3863.16C12390.5 3832.1 12401.7 3805.58 12424 3783.61C12446.4 3761.27 12473.1 3750.09 12504.1 3750.09C12535.2 3750.09 12561.9 3761.27 12584.2 3783.61C12606.6 3805.58 12617.8 3832.1 12617.8 3863.16C12617.8 3883.99 12612.5 3903.12 12601.9 3920.55C12591.6 3937.59 12578 3951.23 12561 3961.45C12543.9 3971.68 12525 3976.8 12504.1 3976.8ZM13099.3 3985.32C13044 3985.32 12994 3975.09 12949.3 3954.64C12904.6 3933.8 12869.2 3903.69 12843.1 3864.3C12817.3 3824.9 12804.4 3776.61 12804.4 3719.41C12804.4 3670.17 12813.9 3629.64 12832.8 3597.82C12851.8 3566 12877.3 3540.81 12909.5 3522.25C12941.7 3503.69 12977.7 3489.67 13017.5 3480.2C13057.3 3470.73 13097.8 3463.54 13139.1 3458.61C13191.4 3452.55 13233.8 3447.63 13266.4 3443.84C13298.9 3439.67 13322.6 3433.05 13337.4 3423.95C13352.1 3414.86 13359.5 3400.09 13359.5 3379.64V3375.66C13359.5 3326.04 13345.5 3287.59 13317.5 3260.32C13289.8 3233.05 13248.5 3219.41 13193.6 3219.41C13136.4 3219.41 13091.4 3232.1 13058.4 3257.48C13025.8 3282.48 13003.3 3310.32 12990.8 3341L12831.1 3304.64C12850.1 3251.61 12877.7 3208.8 12914.1 3176.23C12950.8 3143.27 12993.1 3119.41 13040.8 3104.64C13088.5 3089.48 13138.7 3081.91 13191.4 3081.91C13226.2 3081.91 13263.1 3086.08 13302.1 3094.41C13341.5 3102.36 13378.3 3117.14 13412.4 3138.73C13446.8 3160.32 13475.1 3191.19 13497 3231.34C13519 3271.11 13530 3322.82 13530 3386.45V3966H13364.1V3846.68H13357.3C13346.3 3868.65 13329.8 3890.24 13307.8 3911.45C13285.9 3932.67 13257.6 3950.28 13223.2 3964.3C13188.7 3978.31 13147.4 3985.32 13099.3 3985.32ZM13136.2 3848.95C13183.2 3848.95 13223.4 3839.67 13256.7 3821.11C13290.4 3802.55 13316 3778.31 13333.4 3748.39C13351.2 3718.08 13360.1 3685.7 13360.1 3651.23V3538.73C13354 3544.79 13342.3 3550.47 13324.9 3555.77C13307.8 3560.7 13288.3 3565.05 13266.4 3568.84C13244.4 3572.25 13223 3575.47 13202.1 3578.5C13181.3 3581.15 13163.9 3583.42 13149.9 3585.32C13116.9 3589.48 13086.8 3596.49 13059.5 3606.34C13032.6 3616.19 13011 3630.39 12994.8 3648.95C12978.9 3667.14 12970.9 3691.38 12970.9 3721.68C12970.9 3763.73 12986.4 3795.55 13017.5 3817.14C13048.5 3838.35 13088.1 3848.95 13136.2 3848.95ZM13756.3 3966V3093.27H13926.2V3966H13756.3ZM13842.1 2958.61C13812.5 2958.61 13787.1 2948.77 13765.9 2929.07C13745.1 2908.99 13734.7 2885.13 13734.7 2857.48C13734.7 2829.45 13745.1 2805.58 13765.9 2785.89C13787.1 2765.81 13812.5 2755.77 13842.1 2755.77C13871.6 2755.77 13896.8 2765.81 13917.6 2785.89C13938.8 2805.58 13949.4 2829.45 13949.4 2857.48C13949.4 2885.13 13938.8 2908.99 13917.6 2929.07C13896.8 2948.77 13871.6 2958.61 13842.1 2958.61Z" fill="#7D7D7D" fill-opacity="0.8"/>
<path d="M2928 2083L3828 3873.1H2028L2928 2083Z" fill="white"/>
<path d="M2928 2689L3828 4479.1H2028L2928 2689Z" fill="#33A0D5"/>
<circle r="75" transform="matrix(1 0 0 -1 7050 2378)" fill="#7D7D7D" fill-opacity="0.8"/>
<path d="M7350 2378C7350 2212.31 7215.69 2078 7050 2078C6884.31 2078 6750 2212.31 6750 2378C6750 2543.69 6884.31 2678 7050 2678C7215.69 2678 7350 2543.69 7350 2378ZM6862.29 2378C6862.29 2274.33 6946.33 2190.29 7050 2190.29C7153.67 2190.29 7237.71 2274.33 7237.71 2378C7237.71 2481.67 7153.67 2565.71 7050 2565.71C6946.33 2565.71 6862.29 2481.67 6862.29 2378Z" fill="#7D7D7D" fill-opacity="0.8"/>
</svg>
